<svg width="462" height="352" viewBox="0 0 462 352" fill="none" xmlns="http://www.w3.org/2000/svg">
<path d="M5.57571 346.36C3.94781 344.733 2.66228 342.796 1.79499 340.665C0.92769 338.533 0.496192 336.249 0.525988 333.948C0.555784 331.647 1.04625 329.375 1.96845 327.266C2.89065 325.158 4.22591 323.255 5.89539 321.671L145.594 181.972C147.21 180.357 148.118 178.165 148.118 175.88C148.118 173.595 147.21 171.404 145.594 169.788L5.78676 29.9804C3.19372 27.4481 1.44752 24.1756 0.78763 20.6118C0.127736 17.0479 0.586459 13.3672 2.10089 10.0744C3.95471 6.1953 7.19172 3.14939 11.1763 1.53472C15.1609 -0.079939 19.6052 -0.146687 23.6365 1.34758L450.2 159.632C453.495 160.856 456.336 163.058 458.343 165.943C460.351 168.828 461.428 172.257 461.43 175.772C461.433 179.286 460.36 182.717 458.357 185.605C456.354 188.493 453.516 190.699 450.223 191.927L23.776 350.32C20.6818 351.473 17.3214 351.713 14.0947 351.011C10.8681 350.309 7.91107 348.694 5.57571 346.36Z" fill="currentColor"/>
</svg>
