<svg width="28" height="28" viewBox="0 0 28 28" fill="none" xmlns="http://www.w3.org/2000/svg">
<g id="material-symbols:home-rounded">
<path id="Vector" d="M4.95833 21.875V11.375C4.95833 11.0055 5.04117 10.6555 5.20683 10.325C5.3725 9.99444 5.60078 9.72221 5.89167 9.50832L12.8917 4.25832C13.3 3.94721 13.7667 3.79166 14.2917 3.79166C14.8167 3.79166 15.2833 3.94721 15.6917 4.25832L22.6917 9.50832C22.9833 9.72221 23.212 9.99444 23.3777 10.325C23.5433 10.6555 23.6258 11.0055 23.625 11.375V21.875C23.625 22.5167 23.3963 23.0662 22.939 23.5235C22.4817 23.9808 21.9326 24.2091 21.2917 24.2083H17.7917C17.4611 24.2083 17.1842 24.0963 16.961 23.8723C16.7378 23.6483 16.6258 23.3714 16.625 23.0417V17.2083C16.625 16.8778 16.513 16.6009 16.289 16.3777C16.065 16.1544 15.7881 16.0424 15.4583 16.0417H13.125C12.7944 16.0417 12.5176 16.1537 12.2943 16.3777C12.0711 16.6017 11.9591 16.8785 11.9583 17.2083V23.0417C11.9583 23.3722 11.8463 23.6495 11.6223 23.8735C11.3983 24.0975 11.1214 24.2091 10.7917 24.2083H7.29167C6.65 24.2083 6.10089 23.98 5.64433 23.5235C5.18778 23.0669 4.95911 22.5174 4.95833 21.875Z" fill="white"/>
</g>
</svg>
