<svg width="30" height="38" viewBox="0 0 30 38" fill="none" xmlns="http://www.w3.org/2000/svg">
<g id="mdi:location">
<path id="Vector" d="M14.9998 18.2084C13.95 18.2084 12.9432 17.7914 12.2009 17.049C11.4585 16.3067 11.0415 15.2999 11.0415 14.2501C11.0415 13.2003 11.4585 12.1934 12.2009 11.4511C12.9432 10.7088 13.95 10.2917 14.9998 10.2917C16.0497 10.2917 17.0565 10.7088 17.7988 11.4511C18.5411 12.1934 18.9582 13.2003 18.9582 14.2501C18.9582 14.7699 18.8558 15.2846 18.6569 15.7649C18.4579 16.2451 18.1664 16.6815 17.7988 17.049C17.4312 17.4166 16.9949 17.7082 16.5146 17.9071C16.0344 18.106 15.5197 18.2084 14.9998 18.2084ZM14.9998 3.16675C12.0604 3.16675 9.24126 4.33445 7.16274 6.41298C5.08421 8.49151 3.9165 11.3106 3.9165 14.2501C3.9165 22.5626 14.9998 34.8334 14.9998 34.8334C14.9998 34.8334 26.0832 22.5626 26.0832 14.2501C26.0832 11.3106 24.9155 8.49151 22.8369 6.41298C20.7584 4.33445 17.9393 3.16675 14.9998 3.16675Z" fill="white"/>
</g>
</svg>
