<svg width="19" height="19" viewBox="0 0 19 19" fill="none" xmlns="http://www.w3.org/2000/svg">
<g id="mingcute:move-line" clip-path="url(#clip0_1636_145)">
<g id="Group">
<path id="Vector" d="M6.50279 5.15294C6.35876 5.00886 6.27785 4.81348 6.27785 4.60976C6.27785 4.40603 6.35876 4.21065 6.50279 4.06657L8.62174 1.94762C8.70023 1.8691 8.79341 1.80682 8.89597 1.76432C8.99853 1.72182 9.10846 1.69995 9.21948 1.69995C9.33049 1.69995 9.44042 1.72182 9.54298 1.76432C9.64554 1.80682 9.73873 1.8691 9.81721 1.94762L11.9354 4.06657C12.0088 4.13745 12.0673 4.22222 12.1076 4.31596C12.1478 4.40969 12.169 4.51051 12.1699 4.61252C12.1708 4.71453 12.1514 4.8157 12.1127 4.91012C12.0741 5.00454 12.017 5.09033 11.9449 5.16246C11.8728 5.2346 11.787 5.29165 11.6926 5.33028C11.5982 5.36891 11.497 5.38835 11.395 5.38746C11.293 5.38657 11.1921 5.36538 11.0984 5.32511C11.0047 5.28485 10.9199 5.22632 10.849 5.15294L9.98777 4.29168V8.45122H14.1473L13.286 7.58996C13.1419 7.4459 13.0609 7.25047 13.0608 7.04667C13.0607 6.84286 13.1416 6.64738 13.2857 6.50321C13.4297 6.35905 13.6252 6.27802 13.829 6.27795C14.0328 6.27788 14.2283 6.35877 14.3724 6.50283L16.4914 8.62178C16.5699 8.70026 16.6322 8.79345 16.6747 8.89601C16.7172 8.99857 16.739 9.1085 16.739 9.21951C16.739 9.33053 16.7172 9.44046 16.6747 9.54302C16.6322 9.64558 16.5699 9.73876 16.4914 9.81724L14.3724 11.9362C14.2283 12.0803 14.0328 12.1611 13.829 12.1611C13.6252 12.161 13.4297 12.08 13.2857 11.9358C13.1416 11.7916 13.0607 11.5962 13.0608 11.3924C13.0609 11.1886 13.1419 10.9931 13.286 10.8491L14.1473 9.98781H9.98777V14.1473L10.849 13.2861C10.9939 13.1461 11.188 13.0687 11.3894 13.0704C11.5909 13.0722 11.7836 13.153 11.926 13.2954C12.0685 13.4379 12.1493 13.6306 12.151 13.832C12.1528 14.0335 12.0753 14.2276 11.9354 14.3725L9.81721 16.4914C9.73873 16.5699 9.64554 16.6322 9.54298 16.6747C9.44042 16.7172 9.33049 16.7391 9.21948 16.7391C9.10846 16.7391 8.99853 16.7172 8.89597 16.6747C8.79341 16.6322 8.70023 16.5699 8.62174 16.4914L6.50279 14.3725C6.43146 14.3011 6.37489 14.2163 6.3363 14.1231C6.29772 14.0298 6.27788 13.9299 6.27791 13.829C6.27795 13.7281 6.29786 13.6282 6.33651 13.5349C6.37516 13.4417 6.4318 13.357 6.50318 13.2857C6.57456 13.2144 6.65929 13.1578 6.75254 13.1192C6.84578 13.0806 6.94572 13.0608 7.04663 13.0608C7.14755 13.0609 7.24746 13.0808 7.34068 13.1194C7.4339 13.1581 7.5186 13.2147 7.58993 13.2861L8.45041 14.1473V9.98781H4.29242L5.15367 10.8491C5.22505 10.9204 5.28169 11.0051 5.32034 11.0983C5.35899 11.1915 5.3789 11.2914 5.37894 11.3924C5.37897 11.4933 5.35913 11.5932 5.32055 11.6865C5.28196 11.7797 5.22539 11.8644 5.15406 11.9358C5.08272 12.0072 4.99803 12.0638 4.90481 12.1025C4.81159 12.1411 4.71167 12.161 4.61076 12.1611C4.50985 12.1611 4.40991 12.1413 4.31667 12.1027C4.22342 12.0641 4.13869 12.0075 4.06731 11.9362L1.94835 9.81724C1.86984 9.73876 1.80755 9.64558 1.76505 9.54302C1.72256 9.44046 1.70068 9.33053 1.70068 9.21951C1.70068 9.1085 1.72256 8.99857 1.76505 8.89601C1.80755 8.79345 1.86984 8.70026 1.94835 8.62178L4.06731 6.50283C4.21157 6.35887 4.40711 6.27812 4.61092 6.27833C4.81472 6.27855 5.0101 6.35972 5.15406 6.50398C5.29801 6.64825 5.37877 6.84379 5.37855 7.0476C5.37834 7.2514 5.29717 7.44677 5.1529 7.59073L4.29165 8.45122H8.45118V4.29245L7.58993 5.15294C7.51857 5.22437 7.43384 5.28104 7.34057 5.3197C7.2473 5.35837 7.14733 5.37827 7.04636 5.37827C6.94539 5.37827 6.84542 5.35837 6.75215 5.3197C6.65888 5.28104 6.57415 5.22437 6.50279 5.15294Z" fill="white"/>
</g>
</g>
<defs>
<clipPath id="clip0_1636_145">
<rect width="18.439" height="18.439" fill="white"/>
</clipPath>
</defs>
</svg>
