<svg width="24" height="24" viewBox="0 0 24 24" fill="none" xmlns="http://www.w3.org/2000/svg">
<path d="M12 4.50003C11.77 4.50003 11.55 4.51003 11.32 4.53003L9.91 2.67003C9.61 2.27003 9.05 2.16003 8.61 2.41003L5.38 4.28003C5.16818 4.39993 5.00814 4.59388 4.93062 4.8246C4.8531 5.05532 4.86356 5.30655 4.96 5.53003L5.87 7.68003C5.61 8.05003 5.38 8.44003 5.19 8.85003L2.88 9.14003C2.38 9.20003 2 9.63003 2 10.13L2 13.86C2 14.37 2.38 14.8 2.88 14.86L5.19 15.15C5.38 15.56 5.61 15.95 5.87 16.32L4.96 18.47C4.76 18.93 4.94 19.47 5.38 19.72L8.62 21.59C9.06 21.84 9.61 21.73 9.92 21.33L11.33 19.47C11.779 19.5117 12.231 19.5117 12.68 19.47L14.09 21.33C14.39 21.73 14.95 21.84 15.39 21.59L18.62 19.72C19.06 19.47 19.24 18.93 19.04 18.47L18.13 16.32C18.39 15.95 18.62 15.56 18.81 15.15L21.12 14.86C21.62 14.8 22 14.37 22 13.87L22 10.14C22 9.64003 21.62 9.21003 21.12 9.15003L18.81 8.86003C18.62 8.45003 18.39 8.06003 18.13 7.69003L19.04 5.54003C19.24 5.08003 19.06 4.54003 18.62 4.29003L15.39 2.42003C14.95 2.17003 14.4 2.28003 14.09 2.68003L12.68 4.54003C12.45 4.51003 12.23 4.50003 12 4.50003ZM15.5 11.96C15.5 13.89 13.93 15.46 12 15.46C10.07 15.46 8.5 13.89 8.5 11.96C8.5 10.03 10.07 8.46003 12 8.46003C13.93 8.46003 15.5 10.03 15.5 11.96Z" fill="white"/>
</svg>
