<svg width="24" height="24" viewBox="0 0 24 24" fill="none" xmlns="http://www.w3.org/2000/svg">
<g id="tdesign:task-1-filled">
<path id="Vector" d="M16 2C16 1.44772 15.5523 1 15 1H9C8.44772 1 8 1.44772 8 2V4C8 4.55228 8.44772 5 9 5H15C15.5523 5 16 4.55228 16 4V2Z" fill="white"/>
<path id="Vector_2" d="M3 4C3 3.44772 3.44772 3 4 3H5C5.55228 3 6 3.44772 6 4V6C6 6.55228 6.44772 7 7 7H17C17.5523 7 18 6.55228 18 6V4C18 3.44772 18.4477 3 19 3H20C20.5523 3 21 3.44772 21 4V22C21 22.5523 20.5523 23 20 23H4C3.44772 23 3 22.5523 3 22V4Z" fill="white"/>
</g>
</svg>
