<svg width="32" height="32" viewBox="0 0 32 32" fill="none" xmlns="http://www.w3.org/2000/svg">
<path d="M0.546875 17.8799L7.05354 24.3866C7.57583 24.9089 8.42309 24.9074 8.94353 24.3833C9.46138 23.8617 9.45989 23.0196 8.9402 22.4999L2.44021 15.9999M29.6535 7.43994L16.9628 20.1427C16.1812 20.925 14.913 20.9246 14.132 20.1417L10.9397 16.9417C10.4199 16.4207 9.57703 16.4172 9.05302 16.9339C8.52421 17.4553 8.52121 18.3076 9.04633 18.8327L14.1327 23.9191C14.9137 24.7001 16.18 24.7001 16.9611 23.9191L31.5469 9.33327M23.0602 10.2733C23.5799 9.75359 23.5814 8.91147 23.0635 8.38995C22.5431 7.86582 21.6958 7.86432 21.1735 8.38661L14.6002 14.9599C14.0779 15.4822 14.0794 16.3295 14.6036 16.8499C15.1251 17.3678 15.9672 17.3663 16.4869 16.8466L23.0602 10.2733Z" fill="#77FF7C"/>
</svg>
