<svg width="342" height="270" viewBox="0 0 342 270" fill="none" xmlns="http://www.w3.org/2000/svg">
<path fill-rule="evenodd" clip-rule="evenodd" d="M0 128.55C0 238.846 0.205997 257.497 1.449 259.901C3.57 264.004 9.473 268.813 13.229 269.499C15.028 269.828 72.525 269.945 141 269.758L265.5 269.419L277 266.84C310.329 259.366 330.66 243.684 339.023 219C342.148 209.776 342.942 188.332 340.556 177.606C336.173 157.905 322.467 142.601 299.639 131.918L293.032 128.826L298.983 124.852C311.673 116.379 322.017 101.581 325.443 87C327.617 77.746 327.446 62.063 325.068 52.766C319.292 30.181 302.786 13.786 277.521 5.538C261.738 0.386002 254.978 0 180.622 0H112V26.459V52.919L177.75 53.229C240.465 53.524 243.739 53.63 248.681 55.519C262.078 60.642 267.014 67.399 266.978 80.566C266.944 93.002 262.88 99.482 252.114 104.265C242.516 108.53 235.744 108.928 172.25 108.965L112 109V134V159L178.75 159.02C215.462 159.031 248.357 159.453 251.849 159.958C262.477 161.495 268.733 163.955 273.956 168.65C280.053 174.132 282.26 179.398 282.276 188.5C282.296 199.914 278.268 206.754 268.631 211.67C258.276 216.953 258.038 216.964 155.25 216.983L60 217V108.5V0H30H0V128.55Z" fill="white"/>
</svg>
