<svg width="70" height="25" viewBox="0 0 70 25" fill="none" xmlns="http://www.w3.org/2000/svg">
<path d="M12.8333 5.58333L11 3.75M11 3.75L9.16667 5.58333M11 3.75V20.25M11 20.25L12.8333 18.4167M11 20.25L9.16667 18.4167M17.4167 13.8333L19.25 12M19.25 12L17.4167 10.1667M19.25 12H2.75M2.75 12L4.58333 13.8333M2.75 12L4.58333 10.1667" stroke="white" stroke-opacity="0.44" stroke-width="2.29167" stroke-linecap="round" stroke-linejoin="round"/>
<path d="M39.9 11.3C40.0467 11.3 40.12 11.3733 40.12 11.52V12.906C40.12 13.0527 40.0467 13.126 39.9 13.126H36.446C36.3873 13.126 36.358 13.1553 36.358 13.214V16.602C36.358 16.7487 36.2847 16.822 36.138 16.822H34.752C34.6053 16.822 34.532 16.7487 34.532 16.602V13.214C34.532 13.1553 34.5027 13.126 34.444 13.126H30.99C30.8433 13.126 30.77 13.0527 30.77 12.906V11.52C30.77 11.3733 30.8433 11.3 30.99 11.3H34.444C34.5027 11.3 34.532 11.2707 34.532 11.212V7.692C34.532 7.54533 34.6053 7.472 34.752 7.472H36.138C36.2847 7.472 36.358 7.54533 36.358 7.692V11.212C36.358 11.2707 36.3873 11.3 36.446 11.3H39.9Z" fill="white"/>
<path d="M58 23C56.05 23 54.396 22.321 53.038 20.963C51.68 19.605 51.0007 17.9506 51 16V12H65V16C65 17.95 64.321 19.6043 62.963 20.963C61.605 22.3216 59.9507 23.0006 58 23ZM51 9.99997C51 8.24997 51.5667 6.72097 52.7 5.41297C53.8333 4.10497 55.2667 3.32531 57 3.07397V9.99997H51ZM59 9.99997V3.07497C60.7333 3.32497 62.1667 4.10431 63.3 5.41297C64.4333 6.72164 65 8.25064 65 9.99997H59Z" fill="white" fill-opacity="0.44"/>
<path d="M51 9.99997C51 8.24997 51.5667 6.72097 52.7 5.41297C53.8333 4.10497 55.2667 3.32531 57 3.07397V9.99997H51Z" fill="#BDFF42"/>
</svg>
