<svg width="22" height="22" viewBox="0 0 22 22" fill="none" xmlns="http://www.w3.org/2000/svg">
<g clip-path="url(#clip0_1203_349)">
<path d="M21.796 20.8293C21.9321 20.9653 22.0001 21.1265 22.0001 21.3127C22.0001 21.4989 21.9321 21.66 21.796 21.7961C21.66 21.9321 21.4988 22.0002 21.3126 22.0002C21.1264 22.0002 20.9653 21.9321 20.8292 21.7961L12.3966 13.3742C11.7163 13.9471 10.9643 14.3804 10.1407 14.674C9.31718 14.9676 8.45781 15.118 7.56262 15.1252C6.86796 15.1252 6.19837 15.0356 5.55383 14.8566C4.9093 14.6776 4.30774 14.4233 3.74915 14.0939C3.19055 13.7645 2.67851 13.3706 2.21301 12.9123C1.74752 12.4539 1.35364 11.9455 1.03137 11.3869C0.709108 10.8283 0.454876 10.2231 0.268678 9.57144C0.08248 8.91975 -0.00703826 8.25015 0.000123201 7.56265C0.000123201 6.86799 0.0896414 6.1984 0.268678 5.55386C0.447714 4.90933 0.701946 4.30777 1.03137 3.74918C1.3608 3.19058 1.75468 2.67854 2.21301 2.21304C2.67135 1.74755 3.17981 1.35367 3.7384 1.0314C4.297 0.709138 4.90214 0.454906 5.55383 0.268708C6.20553 0.0825105 6.87512 -0.00700774 7.56262 0.000153718C8.25729 0.000153718 8.92688 0.089672 9.57141 0.268708C10.2159 0.447745 10.8175 0.701977 11.3761 1.0314C11.9347 1.36083 12.4467 1.75471 12.9122 2.21304C13.3777 2.67138 13.7716 3.17984 14.0939 3.73844C14.4161 4.29703 14.6704 4.90217 14.8566 5.55386C15.0428 6.20556 15.1323 6.87515 15.1251 7.56265C15.1251 8.45068 14.9783 9.30647 14.6847 10.13C14.3911 10.9536 13.9542 11.7091 13.3741 12.3966L21.796 20.8293ZM8.25012 11.0002H6.87512V12.3752H8.25012V11.0002ZM8.33606 9.62515C8.33606 9.41031 8.40409 9.21695 8.54016 9.04508C8.67623 8.8732 8.84452 8.70491 9.04504 8.54019C9.24557 8.37548 9.46757 8.2036 9.71106 8.02457C9.95455 7.84553 10.173 7.64501 10.3663 7.42301C10.5597 7.201 10.7316 6.95035 10.882 6.67105C11.0323 6.39176 11.1004 6.06233 11.0861 5.68277C11.0861 5.21728 10.9822 4.79833 10.7745 4.42594C10.5669 4.05354 10.2983 3.73844 9.96887 3.48062C9.63945 3.22281 9.26347 3.02229 8.84094 2.87906C8.41842 2.73583 7.99231 2.66422 7.56262 2.66422C7.1401 2.66422 6.72115 2.72151 6.30579 2.83609C5.89042 2.95067 5.51087 3.12971 5.16712 3.3732C4.82337 3.61669 4.55123 3.91031 4.35071 4.25406C4.15019 4.59781 4.04635 5.01317 4.03919 5.50015H5.58606C5.58606 5.26383 5.65051 5.0633 5.77942 4.89859C5.90833 4.73388 6.07662 4.60139 6.2843 4.50113C6.49199 4.40087 6.70683 4.32567 6.92883 4.27554C7.15084 4.22541 7.3621 4.20393 7.56262 4.21109C7.77031 4.21109 7.98873 4.24332 8.2179 4.30777C8.44706 4.37222 8.66191 4.46532 8.86243 4.58707C9.06295 4.70881 9.22408 4.8592 9.34583 5.03824C9.46757 5.21728 9.53202 5.43212 9.53919 5.68277C9.53919 5.89761 9.47115 6.09097 9.33508 6.26285C9.19902 6.43472 9.03072 6.60302 8.8302 6.76773C8.62968 6.93245 8.40768 7.10432 8.16419 7.28336C7.9207 7.46239 7.70227 7.66291 7.50891 7.88492C7.31555 8.10693 7.14368 8.35758 6.99329 8.63687C6.8429 8.91617 6.77486 9.2456 6.78919 9.62515H8.33606Z" fill="white"/>
</g>
<defs>
<clipPath id="clip0_1203_349">
<rect width="22" height="22" fill="white"/>
</clipPath>
</defs>
</svg>
