<svg width="23" height="23" viewBox="0 0 23 23" fill="none" xmlns="http://www.w3.org/2000/svg">
<path d="M16.2648 5.99057C16.0448 5.86828 15.8028 5.79053 15.5527 5.76176C15.3026 5.73299 15.0493 5.75378 14.8073 5.82293C14.5652 5.89207 14.3391 6.00823 14.142 6.16476C13.9448 6.32129 13.7804 6.51513 13.6582 6.7352L10.0999 13.1388L8.06343 11.1023C7.88662 10.9193 7.67513 10.7732 7.44129 10.6728C7.20745 10.5723 6.95594 10.5195 6.70145 10.5173C6.44696 10.515 6.19457 10.5635 5.95902 10.6599C5.72347 10.7563 5.50947 10.8986 5.32951 11.0786C5.14955 11.2585 5.00723 11.4725 4.91086 11.7081C4.81448 11.9436 4.76599 12.196 4.7682 12.4505C4.77041 12.705 4.82329 12.9565 4.92374 13.1903C5.02419 13.4242 5.1702 13.6357 5.35326 13.8125L9.1866 17.6458C9.54885 18.009 10.0376 18.2084 10.5417 18.2084L10.8071 18.1892C11.1009 18.1481 11.3811 18.0394 11.6258 17.8716C11.8704 17.7038 12.0727 17.4815 12.2168 17.2222L17.0085 8.59724C17.1308 8.37726 17.2087 8.13533 17.2375 7.88528C17.2663 7.63522 17.2456 7.38194 17.1766 7.13988C17.1075 6.89783 16.9915 6.67175 16.835 6.47455C16.6786 6.27735 16.4848 6.11289 16.2648 5.99057Z" fill="black" fill-opacity="0.39"/>
</svg>
