<svg width="55" height="32" viewBox="0 0 55 32" fill="none" xmlns="http://www.w3.org/2000/svg">
<path d="M23.7859 12.3387C23.7057 12.2446 23.6069 12.1692 23.496 12.1174C23.3852 12.0656 23.2649 12.0387 23.1431 12.0384H18.3891L12.643 5.29797C12.5626 5.20432 12.4636 5.12932 12.3528 5.07794C12.242 5.02657 12.1217 5 12.0001 5C11.8785 5 11.7583 5.02657 11.6475 5.07794C11.5366 5.12932 11.4377 5.20432 11.3573 5.29797L5.61117 12.0384H0.857206C0.735046 12.0384 0.614296 12.0652 0.503048 12.117C0.3918 12.1688 0.292624 12.2445 0.212167 12.3388C0.13171 12.4332 0.0718305 12.5442 0.0365421 12.6643C0.00125372 12.7843 -0.00862862 12.9108 0.00755753 13.0351L1.62221 25.473C1.67854 25.8952 1.88153 26.2822 2.19379 26.5628C2.50605 26.8434 2.90655 26.9986 3.32151 27H20.6788C21.0937 26.9986 21.4942 26.8434 21.8065 26.5628C22.1187 26.2822 22.3217 25.8952 22.3781 25.473L23.9927 13.0351C24.0086 12.9106 23.9984 12.784 23.9627 12.6639C23.9271 12.5438 23.8668 12.4329 23.7859 12.3387ZM7.02867 23.4796C6.99977 23.4813 6.97079 23.4813 6.94189 23.4796C6.72866 23.4807 6.52269 23.4002 6.36419 23.2537C6.2057 23.1072 6.10606 22.9054 6.08474 22.6875L5.48474 16.5269C5.462 16.2946 5.53006 16.0626 5.67392 15.8819C5.81779 15.7012 6.02569 15.5865 6.25188 15.5632C6.47808 15.5398 6.70404 15.6097 6.88005 15.7574C7.05607 15.9051 7.16773 16.1186 7.19046 16.3509L7.79047 22.5115C7.81447 22.7436 7.7477 22.976 7.60484 23.1576C7.46197 23.3391 7.25472 23.455 7.02867 23.4796ZM12.8573 22.5995C12.8573 22.8329 12.767 23.0568 12.6062 23.2218C12.4455 23.3869 12.2275 23.4796 12.0001 23.4796C11.7728 23.4796 11.5548 23.3869 11.394 23.2218C11.2333 23.0568 11.143 22.8329 11.143 22.5995V16.4389C11.143 16.2054 11.2333 15.9816 11.394 15.8165C11.5548 15.6515 11.7728 15.5588 12.0001 15.5588C12.2275 15.5588 12.4455 15.6515 12.6062 15.8165C12.767 15.9816 12.8573 16.2054 12.8573 16.4389V22.5995ZM7.88904 12.0384L12.0001 7.21437L16.1112 12.0384H7.88904ZM18.5102 16.5269L17.9102 22.6875C17.8889 22.9044 17.7901 23.1055 17.6327 23.2519C17.4753 23.3982 17.2707 23.4794 17.0584 23.4796C17.0295 23.4813 17.0005 23.4813 16.9716 23.4796C16.8596 23.4681 16.7509 23.434 16.6517 23.3793C16.5526 23.3246 16.4649 23.2504 16.3936 23.1609C16.3224 23.0714 16.269 22.9684 16.2366 22.8577C16.2041 22.7471 16.1932 22.6309 16.2045 22.5159L16.8045 16.3553C16.8272 16.123 16.9388 15.9095 17.1149 15.7618C17.2909 15.6141 17.5168 15.5442 17.743 15.5676C17.9692 15.5909 18.1771 15.7056 18.321 15.8863C18.4649 16.067 18.5329 16.299 18.5102 16.5313V16.5269Z" fill="white"/>
<g filter="url(#filter0_d_71_255)">
<path d="M42.8019 16L39.6918 12.0262C39.6437 11.9652 39.6871 11.875 39.7656 11.875H40.6714C40.7289 11.875 40.7839 11.902 40.8191 11.9465L43.8109 15.7691C43.8627 15.8352 43.8909 15.9167 43.8909 16.0006C43.8909 16.0845 43.8627 16.166 43.8109 16.232L40.8191 20.0535C40.7839 20.0992 40.7289 20.125 40.6714 20.125H39.7656C39.6871 20.125 39.6437 20.0348 39.6918 19.9738L42.8019 16ZM39.2394 16L36.1293 12.0262C36.0812 11.9652 36.1246 11.875 36.2031 11.875H37.1089C37.1664 11.875 37.2214 11.902 37.2566 11.9465L40.2484 15.7691C40.3002 15.8352 40.3284 15.9167 40.3284 16.0006C40.3284 16.0845 40.3002 16.166 40.2484 16.232L37.2566 20.0535C37.2214 20.0992 37.1664 20.125 37.1089 20.125H36.2031C36.1246 20.125 36.0812 20.0348 36.1293 19.9738L39.2394 16Z" fill="white"/>
</g>
<defs>
<filter id="filter0_d_71_255" x="23" y="-1" width="34" height="34" filterUnits="userSpaceOnUse" color-interpolation-filters="sRGB">
<feFlood flood-opacity="0" result="BackgroundImageFix"/>
<feColorMatrix in="SourceAlpha" type="matrix" values="0 0 0 0 0 0 0 0 0 0 0 0 0 0 0 0 0 0 127 0" result="hardAlpha"/>
<feOffset/>
<feGaussianBlur stdDeviation="5.5"/>
<feColorMatrix type="matrix" values="0 0 0 0 1 0 0 0 0 1 0 0 0 0 1 0 0 0 1 0"/>
<feBlend mode="normal" in2="BackgroundImageFix" result="effect1_dropShadow_71_255"/>
<feBlend mode="normal" in="SourceGraphic" in2="effect1_dropShadow_71_255" result="shape"/>
</filter>
</defs>
</svg>
