<svg width="18" height="21" viewBox="0 0 12 14" fill="none" xmlns="http://www.w3.org/2000/svg">
<path d="M10.9783 3.21995C11.1369 3.22013 11.2895 3.28161 11.4048 3.39185C11.5201 3.50208 11.5895 3.65273 11.5988 3.81303C11.6081 3.97333 11.5566 4.13117 11.4548 4.25431C11.353 4.37744 11.2086 4.45658 11.0511 4.47554L10.9783 4.47995H10.9279L10.356 11.41C10.356 11.892 10.1741 12.3559 9.8474 12.7067C9.52072 13.0574 9.07399 13.2685 8.59862 13.2968L8.4891 13.3H3.51071C2.51627 13.3 1.70355 12.5131 1.64879 11.5675L1.64568 11.4622L1.0713 4.47995H1.02151C0.8629 4.47977 0.710342 4.41829 0.595008 4.30806C0.479673 4.19783 0.410268 4.04717 0.400973 3.88687C0.391677 3.72657 0.443194 3.56873 0.544996 3.4456C0.646798 3.32246 0.791202 3.24333 0.948703 3.22436L1.02151 3.21995H10.9783ZM5.0733 6.45815C4.94292 6.37958 4.78867 6.35194 4.63956 6.38043C4.49046 6.40892 4.35678 6.49158 4.26366 6.61287C4.17054 6.73415 4.1244 6.8857 4.13391 7.03901C4.14343 7.19233 4.20795 7.33683 4.31534 7.44536L5.11935 8.25995L4.31534 9.07454L4.26369 9.13376C4.16698 9.26039 4.1215 9.41953 4.13649 9.57887C4.15148 9.73821 4.22583 9.8858 4.34441 9.99166C4.463 10.0975 4.61695 10.1537 4.77498 10.1488C4.93301 10.1439 5.08328 10.0784 5.19527 9.96536L5.9999 9.1514L6.80453 9.96536L6.86303 10.0177C6.98811 10.1156 7.14531 10.1616 7.3027 10.1464C7.46009 10.1312 7.60588 10.056 7.71045 9.93593C7.81501 9.81587 7.87052 9.66002 7.8657 9.50003C7.86087 9.34004 7.79607 9.18791 7.68446 9.07454L6.88046 8.25995L7.68446 7.44536L7.73612 7.38614C7.83283 7.25952 7.87831 7.10037 7.86331 6.94103C7.84832 6.78169 7.77398 6.6341 7.65539 6.52824C7.5368 6.42238 7.38286 6.36618 7.22483 6.37107C7.06679 6.37595 6.91652 6.44155 6.80453 6.55454L5.9999 7.3685L5.19527 6.55454L5.13677 6.50225L5.0733 6.45815ZM7.2445 0.699951C7.57459 0.699951 7.89116 0.832701 8.12456 1.069C8.35797 1.30529 8.4891 1.62578 8.4891 1.95995C8.48892 2.12053 8.42819 2.27497 8.3193 2.39173C8.21042 2.5085 8.06161 2.57876 7.90327 2.58817C7.74493 2.59758 7.58902 2.54543 7.46739 2.44236C7.34576 2.3393 7.26759 2.19311 7.24886 2.03366L7.2445 1.95995H4.7553L4.75095 2.03366C4.73222 2.19311 4.65405 2.3393 4.53242 2.44236C4.41079 2.54543 4.25487 2.59758 4.09654 2.58817C3.9382 2.57876 3.78938 2.5085 3.6805 2.39173C3.57162 2.27497 3.51088 2.12053 3.51071 1.95995C3.51061 1.64207 3.6292 1.33589 3.8427 1.10281C4.05621 0.869718 4.34885 0.726942 4.66196 0.703101L4.7553 0.699951H7.2445Z" fill="#FF003D"/>
</svg>
