<svg width="27" height="28" viewBox="0 0 27 28" fill="none" xmlns="http://www.w3.org/2000/svg">
<g id="mdi:invite">
<path id="Vector" d="M21.375 19.625V21.875H7.875V19.625C7.875 19.625 7.875 15.125 14.625 15.125C21.375 15.125 21.375 19.625 21.375 19.625ZM18 9.5C18 8.83249 17.8021 8.17997 17.4312 7.62495C17.0604 7.06994 16.5333 6.63735 15.9166 6.38191C15.2999 6.12646 14.6213 6.05963 13.9666 6.18985C13.3119 6.32008 12.7105 6.64151 12.2385 7.11352C11.7665 7.58552 11.4451 8.18689 11.3148 8.84157C11.1846 9.49626 11.2515 10.1749 11.5069 10.7916C11.7624 11.4083 12.1949 11.9354 12.75 12.3062C13.305 12.6771 13.9575 12.875 14.625 12.875C15.5201 12.875 16.3786 12.5194 17.0115 11.8865C17.6444 11.2536 18 10.3951 18 9.5ZM21.6 15.1925C22.215 15.7598 22.7107 16.444 23.0584 17.205C23.4061 17.9661 23.5987 18.7887 23.625 19.625V21.875H27V19.625C27 19.625 27 15.7438 21.6 15.1925ZM20.25 6.125C19.9101 6.12502 19.5723 6.17816 19.2488 6.2825C19.9069 7.22634 20.2598 8.34933 20.2598 9.5C20.2598 10.6507 19.9069 11.7737 19.2488 12.7175C19.5723 12.8218 19.9101 12.875 20.25 12.875C21.1451 12.875 22.0036 12.5194 22.6365 11.8865C23.2694 11.2536 23.625 10.3951 23.625 9.5C23.625 8.6049 23.2694 7.74645 22.6365 7.11352C22.0036 6.48058 21.1451 6.125 20.25 6.125ZM9 11.75H5.625V8.375H3.375V11.75H0V14H3.375V17.375H5.625V14H9V11.75Z" fill="white"/>
</g>
</svg>
