<svg width="22" height="22" viewBox="0 0 22 22" fill="none" xmlns="http://www.w3.org/2000/svg">
<g id="basil:add-solid">
<path id="Vector" fill-rule="evenodd" clip-rule="evenodd" d="M6.73281 3.68228C9.56886 3.36828 12.4309 3.36828 15.267 3.68228C16.8372 3.85828 18.1041 5.09487 18.2883 6.67062C18.6244 9.54711 18.6244 12.453 18.2883 15.3294C18.1041 16.9052 16.8372 18.1418 15.267 18.3178C12.4309 18.6318 9.56886 18.6318 6.73281 18.3178C5.16256 18.1418 3.89572 16.9052 3.71147 15.3294C3.37547 12.4533 3.37547 9.54773 3.71147 6.67153C3.80467 5.906 4.15365 5.19437 4.70187 4.65197C5.25009 4.10958 5.9654 3.76821 6.73189 3.6832M10.9999 6.42312C11.1822 6.42312 11.3571 6.49555 11.486 6.62448C11.615 6.75341 11.6874 6.92828 11.6874 7.11062V10.3125H14.8893C15.0716 10.3125 15.2465 10.385 15.3754 10.5139C15.5044 10.6428 15.5768 10.8177 15.5768 11C15.5768 11.1824 15.5044 11.3572 15.3754 11.4862C15.2465 11.6151 15.0716 11.6875 14.8893 11.6875H11.6874V14.8894C11.6874 15.0718 11.615 15.2467 11.486 15.3756C11.3571 15.5045 11.1822 15.5769 10.9999 15.5769C10.8176 15.5769 10.6427 15.5045 10.5138 15.3756C10.3848 15.2467 10.3124 15.0718 10.3124 14.8894V11.6875H7.11047C6.92814 11.6875 6.75327 11.6151 6.62434 11.4862C6.49541 11.3572 6.42297 11.1824 6.42297 11C6.42297 10.8177 6.49541 10.6428 6.62434 10.5139C6.75327 10.385 6.92814 10.3125 7.11047 10.3125H10.3124V7.11062C10.3124 6.92828 10.3848 6.75341 10.5138 6.62448C10.6427 6.49555 10.8176 6.42312 10.9999 6.42312Z" fill="white"/>
</g>
</svg>
