<svg width="23" height="23" viewBox="0 0 23 23" fill="none" xmlns="http://www.w3.org/2000/svg">
<path d="M15.3334 15.5345L15.3334 7.46531C15.3338 7.14675 15.244 6.83457 15.0744 6.56491C14.9048 6.29525 14.6623 6.07913 14.375 5.94156C14.0341 5.78053 13.6548 5.71851 13.2803 5.76256C12.9059 5.80662 12.5513 5.95498 12.2571 6.19073L7.3696 10.2253C7.18691 10.3836 7.0404 10.5794 6.93998 10.7993C6.83957 11.0192 6.7876 11.2581 6.7876 11.4999C6.7876 11.7416 6.83957 11.9806 6.93998 12.2005C7.0404 12.4204 7.18691 12.6161 7.3696 12.7745L12.2571 16.8091C12.5513 17.0448 12.9059 17.1932 13.2803 17.2372C13.6548 17.2813 14.0341 17.2193 14.375 17.0582C14.6623 16.9207 14.9048 16.7046 15.0744 16.4349C15.244 16.1652 15.3338 15.853 15.3334 15.5345Z" fill="white"/>
</svg>
