<svg width="22" height="22" viewBox="0 0 22 22" fill="none" xmlns="http://www.w3.org/2000/svg">
<g id="mdi:crown">
<path id="Vector" d="M5.95373 14.4285C5.4014 14.4285 4.92811 14.0335 4.82931 13.4901L3.88927 8.31988C3.69379 7.24477 4.9739 6.53474 5.78246 7.26979L6.95532 8.33604C7.49323 8.82504 8.34497 8.69418 8.71127 8.06624L10.0128 5.83512C10.4538 5.07912 11.5461 5.07912 11.9871 5.83512L13.2886 8.06624C13.6549 8.69418 14.5066 8.82504 15.0445 8.33604L16.2174 7.2698C17.026 6.53474 18.3061 7.24477 18.1106 8.31988L17.1706 13.4901C17.0717 14.0335 16.5985 14.4285 16.0461 14.4285H5.95373ZM16.9999 17C16.9999 17.5143 16.6571 17.8571 16.1428 17.8571H5.85707C5.34279 17.8571 4.99993 17.5143 4.99993 17C4.99993 16.5266 5.38369 16.1428 5.85707 16.1428H16.1428C16.6162 16.1428 16.9999 16.5266 16.9999 17Z" fill="white"/>
</g>
</svg>
