<svg width="22" height="22" viewBox="0 0 22 22" fill="none" xmlns="http://www.w3.org/2000/svg">
<g id="bxs:detail">
<path id="Vector" d="M17.8462 2.677H3.56928C3.09597 2.677 2.64205 2.86502 2.30737 3.1997C1.97269 3.53438 1.78467 3.98831 1.78467 4.46162V16.9539C1.78467 17.4272 1.97269 17.8812 2.30737 18.2158C2.64205 18.5505 3.09597 18.7385 3.56928 18.7385H17.8462C18.3195 18.7385 18.7734 18.5505 19.1081 18.2158C19.4428 17.8812 19.6308 17.4272 19.6308 16.9539V4.46162C19.6308 3.98831 19.4428 3.53438 19.1081 3.1997C18.7734 2.86502 18.3195 2.677 17.8462 2.677ZM9.81544 15.1693H4.46159V13.3847H9.81544V15.1693ZM16.9539 11.6001H4.46159V9.81546H16.9539V11.6001ZM16.9539 8.03085H4.46159V6.24623H16.9539V8.03085Z" fill="white"/>
</g>
</svg>
