<svg width="15" height="15" viewBox="0 0 15 15" fill="none" xmlns="http://www.w3.org/2000/svg">
<g id="mingcute:close-fill" clip-path="url(#clip0_78_139)">
<g id="Group">
<path id="Vector" fill-rule="evenodd" clip-rule="evenodd" d="M7.50016 8.72032L10.5494 11.7695C10.7112 11.9313 10.9306 12.0222 11.1595 12.0222C11.3883 12.0222 11.6077 11.9313 11.7695 11.7695C11.9313 11.6077 12.0222 11.3883 12.0222 11.1595C12.0222 10.9307 11.9313 10.7112 11.7695 10.5494L8.71916 7.50017L11.769 4.45095C11.849 4.37083 11.9126 4.27573 11.9559 4.17107C11.9992 4.0664 12.0215 3.95423 12.0215 3.84096C12.0214 3.72768 11.9991 3.61552 11.9557 3.51088C11.9124 3.40624 11.8488 3.31116 11.7687 3.23109C11.6886 3.15101 11.5935 3.08749 11.4888 3.04417C11.3841 3.00085 11.272 2.97856 11.1587 2.97859C11.0454 2.97861 10.9332 3.00095 10.8286 3.04432C10.724 3.0877 10.6289 3.15126 10.5488 3.23137L7.50016 6.2806L4.45094 3.23137C4.37141 3.14896 4.27627 3.08321 4.17107 3.03796C4.06586 2.9927 3.95269 2.96886 3.83817 2.96781C3.72365 2.96676 3.61007 2.98853 3.50405 3.03185C3.39803 3.07516 3.3017 3.13916 3.22068 3.22011C3.13966 3.30105 3.07557 3.39732 3.03216 3.5033C2.98874 3.60927 2.96686 3.72284 2.9678 3.83736C2.96874 3.95188 2.99248 4.06507 3.03763 4.17032C3.08279 4.27557 3.14845 4.37077 3.23079 4.45037L6.28116 7.50017L3.23136 10.55C3.14902 10.6296 3.08336 10.7248 3.03821 10.83C2.99306 10.9353 2.96932 11.0485 2.96838 11.163C2.96744 11.2775 2.98931 11.3911 3.03273 11.497C3.07615 11.603 3.14024 11.6993 3.22126 11.7802C3.30228 11.8612 3.39861 11.9252 3.50462 11.9685C3.61064 12.0118 3.72423 12.0336 3.83875 12.0325C3.95327 12.0315 4.06643 12.0076 4.17164 11.9624C4.27685 11.9171 4.37199 11.8514 4.45151 11.769L7.50016 8.72032Z" fill="white"/>
</g>
</g>
<defs>
<clipPath id="clip0_78_139">
<rect width="13.8" height="13.8" fill="white" transform="translate(0.600098 0.600098)"/>
</clipPath>
</defs>
</svg>
