<svg width="26" height="26" viewBox="0 0 26 26" fill="none" xmlns="http://www.w3.org/2000/svg">
<g id="material-symbols:history-rounded">
<path id="Vector" d="M13 22.75C10.725 22.75 8.71181 22.0596 6.96042 20.6787C5.20903 19.2978 4.07153 17.5327 3.54792 15.3833C3.47569 15.1125 3.52986 14.8644 3.71042 14.6391C3.89097 14.4137 4.13472 14.2827 4.44167 14.2458C4.73056 14.2097 4.99236 14.2639 5.22708 14.4083C5.46181 14.5528 5.62431 14.7694 5.71458 15.0583C6.14792 16.6833 7.04167 18.0104 8.39583 19.0396C9.75 20.0688 11.2847 20.5833 13 20.5833C15.1125 20.5833 16.9047 19.8477 18.3766 18.3766C19.8485 16.9054 20.5841 15.1132 20.5833 13C20.5826 10.8868 19.847 9.09494 18.3766 7.6245C16.9061 6.15406 15.1139 5.41811 13 5.41667C11.7542 5.41667 10.5896 5.70556 9.50625 6.28333C8.42292 6.86111 7.51111 7.65556 6.77083 8.66667H8.66667C8.97361 8.66667 9.23108 8.77067 9.43908 8.97867C9.64708 9.18667 9.75072 9.44378 9.75 9.75C9.74928 10.0562 9.64528 10.3137 9.438 10.5224C9.23072 10.7311 8.97361 10.8348 8.66667 10.8333H4.33333C4.02639 10.8333 3.76928 10.7293 3.562 10.5213C3.35472 10.3133 3.25072 10.0562 3.25 9.75V5.41667C3.25 5.10972 3.354 4.85261 3.562 4.64533C3.77 4.43806 4.02711 4.33406 4.33333 4.33333C4.63956 4.33261 4.89703 4.43661 5.10575 4.64533C5.31447 4.85406 5.41811 5.11117 5.41667 5.41667V6.87917C6.3375 5.72361 7.46164 4.82986 8.78908 4.19792C10.1165 3.56597 11.5202 3.25 13 3.25C14.3542 3.25 15.6228 3.50747 16.8057 4.02242C17.9888 4.53736 19.0179 5.23214 19.8933 6.10675C20.7686 6.98136 21.4637 8.01053 21.9787 9.19425C22.4936 10.378 22.7507 11.6466 22.75 13C22.7493 14.3534 22.4922 15.622 21.9787 16.8057C21.4652 17.9895 20.77 19.0186 19.8933 19.8932C19.0165 20.7679 17.9873 21.463 16.8057 21.9787C15.6242 22.4943 14.3556 22.7514 13 22.75ZM14.0833 12.5667L16.7917 15.275C16.9903 15.4736 17.0896 15.7264 17.0896 16.0333C17.0896 16.3403 16.9903 16.5931 16.7917 16.7917C16.5931 16.9903 16.3403 17.0896 16.0333 17.0896C15.7264 17.0896 15.4736 16.9903 15.275 16.7917L12.2417 13.7583C12.1333 13.65 12.0521 13.5283 11.9979 13.3932C11.9438 13.2582 11.9167 13.1181 11.9167 12.9729V8.66667C11.9167 8.35972 12.0207 8.10261 12.2287 7.89533C12.4367 7.68806 12.6938 7.58406 13 7.58333C13.3062 7.58261 13.5637 7.68661 13.7724 7.89533C13.9811 8.10406 14.0848 8.36117 14.0833 8.66667V12.5667Z" fill="white"/>
</g>
</svg>
