<svg width="28" height="28" viewBox="0 0 28 28" fill="none" xmlns="http://www.w3.org/2000/svg">
<g id="typcn:location">
<path id="Vector" d="M20.6002 6.1879C16.9555 2.60273 11.0463 2.60273 7.40166 6.1879C6.53632 7.03331 5.84872 8.04317 5.37926 9.15813C4.90981 10.2731 4.66797 11.4706 4.66797 12.6804C4.66797 13.8902 4.90981 15.0877 5.37926 16.2027C5.84872 17.3176 6.53632 18.3275 7.40166 19.1729L14.0003 25.6654L20.6002 19.1729C21.4655 18.3275 22.1531 17.3176 22.6226 16.2027C23.092 15.0877 23.3339 13.8902 23.3339 12.6804C23.3339 11.4706 23.092 10.2731 22.6226 9.15813C22.1531 8.04317 21.4655 7.03331 20.6002 6.1879ZM14.0003 15.7487C13.221 15.7487 12.4895 15.4454 11.9377 14.8947C11.3914 14.3473 11.0846 13.6055 11.0846 12.8321C11.0846 12.0587 11.3914 11.3169 11.9377 10.7694C12.4883 10.2187 13.221 9.9154 14.0003 9.9154C14.7797 9.9154 15.5123 10.2187 16.063 10.7694C16.6093 11.3169 16.9161 12.0587 16.9161 12.8321C16.9161 13.6055 16.6093 14.3473 16.063 14.8947C15.5123 15.4454 14.7797 15.7487 14.0003 15.7487Z" fill="white"/>
</g>
</svg>
