<svg width="29" height="29" viewBox="0 0 29 29" fill="none" xmlns="http://www.w3.org/2000/svg">
<path d="M19.3332 20.5416V22.9583H2.4165V20.5416C2.4165 20.5416 2.4165 15.7083 10.8748 15.7083C19.3332 15.7083 19.3332 20.5416 19.3332 20.5416ZM15.104 9.06248C15.104 8.22603 14.856 7.40837 14.3913 6.71288C13.9266 6.0174 13.266 5.47534 12.4933 5.15524C11.7205 4.83515 10.8701 4.75139 10.0498 4.91458C9.22939 5.07776 8.47582 5.48055 7.88436 6.07201C7.29291 6.66347 6.89012 7.41703 6.72693 8.23741C6.56375 9.05779 6.6475 9.90813 6.9676 10.6809C7.28769 11.4537 7.82976 12.1142 8.52524 12.5789C9.22072 13.0436 10.0384 13.2916 10.8748 13.2916C11.9965 13.2916 13.0722 12.8461 13.8653 12.053C14.6584 11.2598 15.104 10.1841 15.104 9.06248ZM19.2607 15.7083C20.0035 16.2832 20.6113 17.0138 21.0414 17.8489C21.4714 18.6839 21.7132 19.6031 21.7498 20.5416V22.9583H26.5832V20.5416C26.5832 20.5416 26.5832 16.1554 19.2607 15.7083ZM18.1248 4.83332C17.2931 4.82868 16.4797 5.07735 15.7928 5.54623C16.5267 6.57179 16.9214 7.80133 16.9214 9.06248C16.9214 10.3236 16.5267 11.5532 15.7928 12.5787C16.4797 13.0476 17.2931 13.2963 18.1248 13.2916C19.2465 13.2916 20.3222 12.8461 21.1153 12.053C21.9084 11.2598 22.354 10.1841 22.354 9.06248C22.354 7.94084 21.9084 6.86513 21.1153 6.07201C20.3222 5.27889 19.2465 4.83332 18.1248 4.83332Z" fill="white"/>
</svg>
