<svg width="17" height="17" viewBox="0 0 17 17" fill="none" xmlns="http://www.w3.org/2000/svg">
<g id="mingcute:time-fill" clip-path="url(#clip0_1633_34)">
<g id="Group">
<path id="Vector" d="M8.49984 1.41675C12.412 1.41675 15.5832 4.58796 15.5832 8.50008C15.5832 12.4122 12.412 15.5834 8.49984 15.5834C4.58771 15.5834 1.4165 12.4122 1.4165 8.50008C1.4165 4.58796 4.58771 1.41675 8.49984 1.41675ZM8.49984 4.25008C8.31198 4.25008 8.13181 4.32471 7.99897 4.45755C7.86613 4.59039 7.7915 4.77055 7.7915 4.95842V8.50008C7.79154 8.68793 7.8662 8.86807 7.99905 9.00087L10.124 11.1259C10.2576 11.2549 10.4366 11.3263 10.6223 11.3247C10.808 11.3231 10.9857 11.2486 11.117 11.1172C11.2483 10.9859 11.3228 10.8083 11.3244 10.6225C11.3261 10.4368 11.2547 10.2579 11.1256 10.1243L9.20817 8.20683V4.95842C9.20817 4.77055 9.13354 4.59039 9.0007 4.45755C8.86787 4.32471 8.6877 4.25008 8.49984 4.25008Z" fill="white"/>
</g>
</g>
<defs>
<clipPath id="clip0_1633_34">
<rect width="17" height="17" fill="white"/>
</clipPath>
</defs>
</svg>
